<svg width="80" height="80" viewBox="0 0 80 80" fill="none" xmlns="http://www.w3.org/2000/svg">
<g opacity="0.6" clip-path="url(#clip0_8_1041)">
<path d="M19.2009 56.7986C17.2004 56.7986 15.5005 57.4986 14.1003 58.8985C12.7007 60.2997 12.0004 61.9993 12.0004 63.9997C12.0004 66.0004 12.7002 67.6999 14.1003 69.1011C15.501 70.5011 17.2009 71.201 19.2009 71.201C21.1677 71.201 22.859 70.5011 24.276 69.1011C25.6924 67.7017 26.4006 66.0004 26.4006 63.9997C26.4006 61.9993 25.6926 60.3009 24.276 58.8985C22.8589 57.4998 21.1677 56.7986 19.2009 56.7986ZM17.6009 41.5995C17.6009 39.3996 16.8179 37.5168 15.2511 35.9487C13.6844 34.3821 11.8008 33.5989 9.60086 33.5989C7.40077 33.5989 5.51747 34.3823 3.95063 35.9487C2.38414 37.5156 1.60098 39.3989 1.60098 41.5995C1.60098 43.7991 2.38397 45.6815 3.95063 47.2487C5.51747 48.8159 7.40077 49.5992 9.60086 49.5992C11.8008 49.5992 13.6844 48.8159 15.2511 47.2487C16.8179 45.6825 17.6009 43.7991 17.6009 41.5995ZM64.0001 23.2005C65.0992 23.2005 66.0424 22.8083 66.8247 22.0253C67.608 21.2416 68.0004 20.2996 68.0004 19.1998C68.0004 18.0995 67.608 17.1582 66.8247 16.375C66.0418 15.5914 65.0992 15.1998 64.0001 15.1998C62.8998 15.1998 61.9576 15.5921 61.1742 16.375C60.3914 17.1584 59.9997 18.0995 59.9997 19.1998C59.9997 20.3001 60.3914 21.2416 61.1742 22.0253C61.9576 22.809 62.8998 23.2005 64.0001 23.2005ZM19.2014 10.4003C16.7677 10.4003 14.6928 11.2588 12.976 12.9752C11.2591 14.6916 10.4012 16.7666 10.4012 19.1998C10.4012 21.6339 11.2591 23.708 12.976 25.4251C14.6933 27.1421 16.7682 28.0004 19.2014 28.0004C21.6346 28.0004 23.7096 27.1415 25.426 25.4251C27.1424 23.708 28.0009 21.6333 28.0009 19.1998C28.0009 16.7666 27.1424 14.6916 25.426 12.9752C23.7096 11.2588 21.6346 10.4003 19.2014 10.4003ZM76.9996 38.1991C76.0665 37.2657 74.9333 36.7995 73.6004 36.7995C72.2663 36.7995 71.1331 37.2657 70.2 38.1991C69.2675 39.1325 68.8013 40.2661 68.8013 41.6002C68.8013 42.9329 69.2675 44.0681 70.2 44.9994C71.1336 45.9331 72.2663 46.3993 73.6004 46.3993C74.9333 46.3993 76.0672 45.9331 76.9996 44.9994C77.9333 44.067 78.399 42.9329 78.399 41.6002C78.399 40.2668 77.934 39.133 76.9996 38.1991ZM64.0001 58.3994C62.4658 58.3994 61.1492 58.9489 60.0489 60.0493C58.9498 61.1483 58.3996 62.4656 58.3996 63.9999C58.3996 65.5329 58.9498 66.8502 60.0489 67.9507C61.1492 69.0508 62.466 69.5999 64.0001 69.5999C65.5331 69.5999 66.8497 69.0498 67.95 67.9507C69.0503 66.8504 69.6 65.5336 69.6 63.9999C69.6 62.4656 69.0503 61.1497 67.95 60.0493C66.8499 58.9488 65.5331 58.3994 64.0001 58.3994ZM41.6004 67.1984C39.8337 67.1984 38.3252 67.8246 37.0744 69.0748C35.8249 70.3251 35.1997 71.8327 35.1997 73.5995C35.1997 75.3664 35.8242 76.8742 37.0744 78.1242C38.3252 79.3745 39.833 80.0002 41.6004 80.0002C43.3672 80.0002 44.875 79.3745 46.1252 78.1242C47.3755 76.8742 48.0005 75.3664 48.0005 73.5995C48.0005 71.8327 47.3755 70.3251 46.1252 69.0748C44.875 67.8246 43.3672 67.1984 41.6004 67.1984ZM41.6004 0C38.9341 0 36.6664 0.93289 34.7996 2.79955C32.9333 4.66638 32 6.93354 32 9.59999C32 12.2666 32.9329 14.5327 34.7996 16.3997C36.6664 18.266 38.9336 19.1995 41.6004 19.1995C44.2679 19.1995 46.534 18.2666 48.4001 16.3997C50.2663 14.5336 51.1995 12.2666 51.1995 9.59999C51.1995 6.93372 50.2663 4.66708 48.4001 2.79955C46.534 0.933415 44.2679 0 41.6004 0Z" fill="currentColor"/>
</g>
<defs>
<clipPath id="clip0_8_1041">
<rect width="80" height="80" fill="currentColor"/>
</clipPath>
</defs>
</svg>
