<svg width="32" height="32" viewBox="0 0 32 32" fill="none" xmlns="http://www.w3.org/2000/svg">
<path fill-rule="evenodd" clip-rule="evenodd" d="M14.0371 0.96065C14.9402 1.80983 14.7321 3.10603 14.302 4.09364L14.3013 4.09533C13.6495 5.5851 13.2912 7.21842 13.3044 8.94602L13.3045 8.94989C13.331 15.3613 18.6604 20.831 25.1869 21.0979L25.1878 21.098C26.1515 21.1381 27.0726 21.0713 27.967 20.9112C28.5543 20.8042 29.1257 20.7863 29.6373 20.9056C30.1588 21.0272 30.6769 21.31 30.9979 21.8353C31.3176 22.3584 31.3343 22.9461 31.2117 23.4617C31.091 23.9696 30.8245 24.4712 30.473 24.9474C27.3914 29.1635 22.2614 31.8331 16.536 31.5848L16.5353 31.5848C8.41019 31.2275 1.61097 24.7281 1.04852 16.6914C0.534645 9.56757 4.76234 3.3632 10.9077 0.771118C11.8941 0.353122 13.1676 0.143071 14.0371 0.96065ZM12.4923 2.57895C12.3471 2.58296 12.1032 2.62789 11.7562 2.77499L11.7543 2.77581C6.41073 5.02927 2.77605 10.4009 3.21905 16.5359L3.21923 16.5384C3.70193 23.4437 9.58183 29.1008 16.6309 29.4108C21.6106 29.6265 26.0543 27.3066 28.7177 23.6613L28.7211 23.6567C28.9336 23.369 29.036 23.1523 29.0796 23.0129C28.9379 22.9919 28.7026 22.989 28.3553 23.0524L28.3518 23.053C27.3026 23.2409 26.2221 23.3191 25.0972 23.2722C17.4366 22.9584 11.1609 16.5624 11.1284 8.96078C11.113 6.91755 11.5378 4.98306 12.3073 3.224C12.4399 2.91912 12.4837 2.70654 12.4923 2.57895ZM12.6088 2.58787C12.6088 2.58792 12.6076 2.58759 12.6054 2.58673C12.6078 2.58738 12.6089 2.58781 12.6088 2.58787ZM29.1067 22.8815C29.1065 22.8795 29.1065 22.8785 29.1066 22.8785C29.1066 22.8784 29.1067 22.8794 29.1067 22.8815Z" fill="black"/>
</svg>
