<svg width="32" height="32" viewBox="0 0 32 32" fill="none" xmlns="http://www.w3.org/2000/svg">
<g clip-path="url(#clip0_1_20)">
<path fill-rule="evenodd" clip-rule="evenodd" d="M16 7.63636C11.3809 7.63636 7.63636 11.3809 7.63636 16C7.63636 20.6191 11.3809 24.3636 16 24.3636C20.6191 24.3636 24.3636 20.6191 24.3636 16C24.3636 11.3809 20.6191 7.63636 16 7.63636ZM5.45455 16C5.45455 10.1759 10.1759 5.45455 16 5.45455C21.8241 5.45455 26.5455 10.1759 26.5455 16C26.5455 21.8241 21.8241 26.5455 16 26.5455C10.1759 26.5455 5.45455 21.8241 5.45455 16Z" fill="#0C0C0B"/>
<path fill-rule="evenodd" clip-rule="evenodd" d="M16 0C16.8033 0 17.4545 0.651222 17.4545 1.45455V1.57091C17.4545 2.37423 16.8033 3.02545 16 3.02545C15.1967 3.02545 14.5455 2.37423 14.5455 1.57091V1.45455C14.5455 0.651222 15.1967 0 16 0ZM4.58603 4.58603C5.15406 4.01799 6.07503 4.01799 6.64306 4.58603L6.83215 4.77512C7.40019 5.34315 7.40019 6.26412 6.83215 6.83215C6.26412 7.40019 5.34315 7.40019 4.77512 6.83215L4.58603 6.64306C4.01799 6.07503 4.01799 5.15406 4.58603 4.58603ZM27.414 4.58602C27.982 5.15406 27.982 6.07503 27.414 6.64306L27.2249 6.83215C26.6569 7.40019 25.7359 7.40019 25.1678 6.83216C24.5998 6.26412 24.5998 5.34315 25.1678 4.77512L25.3569 4.58603C25.925 4.01799 26.8459 4.01799 27.414 4.58602ZM0 16C0 15.1967 0.651222 14.5455 1.45455 14.5455H1.57091C2.37423 14.5455 3.02545 15.1967 3.02545 16C3.02545 16.8033 2.37423 17.4545 1.57091 17.4545H1.45455C0.651222 17.4545 0 16.8033 0 16ZM28.9745 16C28.9745 15.1967 29.6258 14.5455 30.4291 14.5455H30.5455C31.3488 14.5455 32 15.1967 32 16C32 16.8033 31.3488 17.4545 30.5455 17.4545H30.4291C29.6258 17.4545 28.9745 16.8033 28.9745 16ZM6.83216 25.1678C7.40019 25.7359 7.40019 26.6569 6.83215 27.2249L6.64306 27.414C6.07503 27.982 5.15406 27.982 4.58602 27.414C4.01799 26.8459 4.01799 25.925 4.58603 25.3569L4.77512 25.1678C5.34315 24.5998 6.26412 24.5998 6.83216 25.1678ZM25.1678 25.1678C25.7359 24.5998 26.6568 24.5998 27.2249 25.1678L27.414 25.3569C27.982 25.925 27.982 26.8459 27.414 27.414C26.8459 27.982 25.925 27.982 25.3569 27.414L25.1678 27.2249C24.5998 26.6568 24.5998 25.7359 25.1678 25.1678ZM16 28.9745C16.8033 28.9745 17.4545 29.6258 17.4545 30.4291V30.5455C17.4545 31.3488 16.8033 32 16 32C15.1967 32 14.5455 31.3488 14.5455 30.5455V30.4291C14.5455 29.6258 15.1967 28.9745 16 28.9745Z" fill="#0C0C0B"/>
</g>
<defs>
<clipPath id="clip0_1_20">
<rect width="32" height="32" fill="white"/>
</clipPath>
</defs>
</svg>
